<?xml version="1.0" encoding="UTF-8" standalone="no" ?>
<!DOCTYPE svg PUBLIC "-//W3C//DTD SVG 1.1//EN" "http://www.w3.org/Graphics/SVG/1.1/DTD/svg11.dtd">
<svg xmlns="http://www.w3.org/2000/svg" xmlns:xlink="http://www.w3.org/1999/xlink" version="1.1" width="1080" height="1080" viewBox="0 0 1080 1080" xml:space="preserve">
<desc>Created with Fabric.js 5.2.4</desc>
<defs>
</defs>
<g transform="matrix(1 0 0 1 540 540)" id="4486ce86-19b1-4c79-a024-f6e1a38517bc"  >
<rect style="stroke: none; stroke-width: 1; stroke-dasharray: none; stroke-linecap: butt; stroke-dashoffset: 0; stroke-linejoin: miter; stroke-miterlimit: 4; fill: rgb(255,255,255); fill-rule: nonzero; opacity: 1; visibility: hidden;" vector-effect="non-scaling-stroke"  x="-540" y="-540" rx="0" ry="0" width="1080" height="1080" />
</g>
<g transform="matrix(1 0 0 1 540 540)" id="fadbc2aa-3989-462d-a0c8-24a3fdfce3a5"  >
</g>
<g transform="matrix(1 0 0 1 540.5 540.5)" id="005c715d-348d-4718-9a45-51e377824a00"  >
<path style="stroke: rgb(5,117,132); stroke-width: 1; stroke-dasharray: none; stroke-linecap: butt; stroke-dashoffset: 0; stroke-linejoin: miter; stroke-miterlimit: 4; fill: rgb(173,170,170); fill-rule: nonzero; opacity: 0.92;" vector-effect="non-scaling-stroke"  transform=" translate(-17, -17)" d="M 17 34 C 26.3888 34 34 26.3888 34 17 C 34 7.61116 26.3888 0 17 0 C 7.61114 0 0 7.61116 0 17 C 0 26.3888 7.61114 34 17 34 Z M 22.3034 7.91931 C 22.5616 7.00234 21.6717 6.46011 20.859 7.0391 L 9.51415 15.1211 C 8.63278 15.749 8.77142 17 9.7224 17 L 12.7098 17 L 12.7098 16.9768 L 18.5321 16.9768 L 13.788 18.6508 L 11.6966 26.0807 C 11.4385 26.9977 12.3282 27.5399 13.141 26.9609 L 24.4859 18.8789 C 25.3672 18.251 25.2285 17 24.2776 17 L 19.7473 17 L 22.3034 7.91931 Z" stroke-linecap="round" />
</g>
</svg>